<svg width="43" height="42" viewBox="0 0 43 42" fill="none" xmlns="http://www.w3.org/2000/svg">
<path d="M30.1112 2.68591H13.0635C7.56256 2.68591 3.10315 7.08116 3.10315 12.5029V29.3053C3.10315 34.7271 7.56256 39.1223 13.0635 39.1223H30.1111C35.612 39.1223 40.0714 34.7271 40.0714 29.3053V12.5029C40.0715 7.08116 35.6121 2.68591 30.1112 2.68591Z" stroke="white" stroke-width="4.98234" stroke-miterlimit="10"/>
<path d="M21.5873 29.6992C26.5156 29.6992 30.5107 25.7616 30.5107 20.9042C30.5107 16.0469 26.5156 12.1092 21.5873 12.1092C16.6591 12.1092 12.6639 16.0469 12.6639 20.9042C12.6639 25.7616 16.6591 29.6992 21.5873 29.6992Z" stroke="white" stroke-width="4.98234" stroke-miterlimit="10"/>
<path d="M32.4228 12.1091C33.4789 12.1091 34.335 11.2653 34.335 10.2244C34.335 9.18357 33.4789 8.33978 32.4228 8.33978C31.3667 8.33978 30.5106 9.18357 30.5106 10.2244C30.5106 11.2653 31.3667 12.1091 32.4228 12.1091Z" fill="white"/>
</svg>
