<svg width="38" height="38" viewBox="0 0 38 38" fill="none" xmlns="http://www.w3.org/2000/svg">
<path d="M12.6524 30.9457C14.9301 31.0208 17.1999 30.6452 19.3278 29.8409C21.4557 29.0367 23.3985 27.8202 25.0412 26.2634C26.684 24.7065 27.9934 22.8409 28.8922 20.7768C29.7909 18.7126 30.2608 16.4919 30.2739 14.2457C31.3177 12.9726 32.0928 11.5066 32.5536 9.93407C32.588 9.80982 32.5852 9.67843 32.5456 9.5557C32.506 9.43297 32.4312 9.32415 32.3303 9.24233C32.2294 9.16052 32.1067 9.1092 31.9768 9.09455C31.847 9.07991 31.7157 9.10257 31.5986 9.1598C31.0525 9.41888 30.4377 9.50257 29.8408 9.39907C29.244 9.29557 28.6951 9.01011 28.2715 8.58289C27.7307 7.99926 27.0766 7.52855 26.348 7.19865C25.6193 6.86874 24.8308 6.68635 24.0293 6.66228C23.2278 6.63822 22.4295 6.77296 21.6818 7.05854C20.9341 7.34411 20.2521 7.7747 19.6763 8.3248C18.888 9.0773 18.3106 10.018 18.0002 11.0555C17.6898 12.093 17.657 13.192 17.905 14.2457C12.7448 14.5493 9.20201 12.1354 6.36777 8.8258C6.28263 8.73076 6.17125 8.66222 6.04723 8.62854C5.92322 8.59486 5.79194 8.5975 5.66942 8.63614C5.54691 8.67478 5.43846 8.74775 5.35732 8.84613C5.27618 8.94452 5.22587 9.06406 5.21252 9.19016C4.67258 12.1421 5.06207 15.1863 6.32868 17.9137C7.59529 20.6412 9.67835 22.9213 12.2981 24.4479C10.5415 26.4334 8.0748 27.6735 5.41276 27.9094C5.27014 27.9327 5.13849 27.9993 5.03623 28.1001C4.93396 28.2008 4.86621 28.3305 4.84244 28.471C4.81867 28.6116 4.84009 28.7559 4.90368 28.8839C4.96728 29.0118 5.06988 29.117 5.19711 29.1846C7.51305 30.3253 10.0634 30.9278 12.6524 30.9457Z" fill="white"/>
</svg>
