<svg width="37" height="37" viewBox="0 0 37 37" fill="none" xmlns="http://www.w3.org/2000/svg">
<path d="M34.935 0.685913H2.03325C1.494 0.685913 0.976836 0.89397 0.595527 1.26431C0.214217 1.63465 0 2.13695 0 2.66069V34.6162C0 35.1399 0.214217 35.6422 0.595527 36.0126C0.976836 36.3829 1.494 36.591 2.03325 36.591H19.7411V22.6778H14.9352V17.292H19.7411V13.2527C19.6415 12.3043 19.7568 11.3463 20.0788 10.4459C20.4008 9.54539 20.9218 8.72424 21.6051 8.04C22.2885 7.35577 23.1177 6.82503 24.0346 6.485C24.9515 6.14498 25.9339 6.0039 26.9129 6.07167C28.3516 6.06307 29.7895 6.135 31.2197 6.2871V11.1343H28.2807C25.9517 11.1343 25.5081 12.2114 25.5081 13.7733V17.2381H31.0533L30.3325 22.6239H25.5081V36.591H34.935C35.202 36.591 35.4664 36.5399 35.7131 36.4406C35.9598 36.3414 36.1839 36.1959 36.3727 36.0126C36.5615 35.8292 36.7113 35.6115 36.8135 35.3719C36.9157 35.1323 36.9683 34.8755 36.9683 34.6162V2.66069C36.9683 2.40136 36.9157 2.14457 36.8135 1.90498C36.7113 1.66538 36.5615 1.44769 36.3727 1.26431C36.1839 1.08094 35.9598 0.935476 35.7131 0.836234C35.4664 0.736992 35.202 0.685913 34.935 0.685913Z" fill="white"/>
</svg>
